<?xml version="1.0" standalone="no"?><!DOCTYPE svg PUBLIC "-//W3C//DTD SVG 1.1//EN" "http://www.w3.org/Graphics/SVG/1.1/DTD/svg11.dtd"><svg t="1626230510137" class="icon" viewBox="0 0 1024 1024" version="1.1" xmlns="http://www.w3.org/2000/svg" p-id="3737" xmlns:xlink="http://www.w3.org/1999/xlink" width="200" height="200"><defs><style type="text/css"></style></defs><path d="M512 64C264.576 64 64 264.576 64 512s200.576 448 448 448 448-200.576 448-448S759.424 64 512 64z m118.165333 284.586667l40.234667-40.234667a32 32 0 1 1 45.248 45.248l-40.234667 40.234667a31.936 31.936 0 0 1-45.248 0 32 32 0 0 1 0-45.248zM224 512a32 32 0 0 1 32-32h56.896a32 32 0 1 1 0 64H256a32 32 0 0 1-32-32z m169.834667 163.413333l-40.234667 40.234667c-6.250667 6.250667-14.442667 9.365333-22.634667 9.365333s-16.384-3.114667-22.634666-9.365333a32 32 0 0 1 0-45.248l40.234666-40.234667a32 32 0 1 1 45.269334 45.248z m0-281.578666c-6.250667 6.250667-14.442667 9.365333-22.634667 9.365333s-16.384-3.114667-22.634667-9.365333l-40.234666-40.234667a32 32 0 1 1 45.248-45.248l40.234666 40.234667c12.522667 12.501333 12.522667 32.746667 0.021334 45.248zM544 768a32 32 0 1 1-64 0v-56.896a32 32 0 1 1 64 0V768z m0-455.104a32 32 0 1 1-64 0V256a32 32 0 1 1 64 0v56.896z m171.648 402.752c-6.250667 6.250667-14.442667 9.365333-22.634667 9.365333s-16.384-3.114667-22.634666-9.365333l-40.234667-40.234667a32 32 0 1 1 45.248-45.248l40.234667 40.234667c12.522667 12.501333 12.522667 32.746667 0.021333 45.248zM768 544h-56.896a32 32 0 1 1 0-64H768a32 32 0 1 1 0 64z" fill="#0367FD" p-id="3738"></path></svg>