<svg t="1631442849734" class="icon" viewBox="0 0 1024 1024" version="1.1" xmlns="http://www.w3.org/2000/svg" p-id="8888" width="200" height="200"><path d="M887.936 42.666667H136.106667c-34.56 0-58.709333 32.597333-48.256 64.426666l102.912 204.8c4.010667 12.373333 13.653333 22.442667 25.728 28.672a416.768 416.768 0 0 1 293.546666-119.466666c115.797333 0 219.52 45.781333 294.314667 120.234666a48.64 48.64 0 0 0 28.970667-29.44l102.912-204.8c10.453333-31.829333-13.653333-64.426667-48.213334-64.426666z" fill="#F78437" p-id="8889"></path><path d="M512 298.666667c-188.16 0-341.333333 153.173333-341.333333 341.333333s153.173333 341.333333 341.333333 341.333333 341.333333-153.173333 341.333333-341.333333a341.333333 341.333333 0 0 0-341.333333-341.333333z" fill="#F9BD00" p-id="8890"></path></svg>