<svg t="1631110763783" class="icon" viewBox="0 0 1024 1024" version="1.1" xmlns="http://www.w3.org/2000/svg" p-id="8499" width="200" height="200"><path d="M932.341 812.794L752.334 632.785c35.6-56.919 56.199-124.182 56.199-196.267 0.002-204.71-165.945-370.657-370.654-370.657-204.708 0-370.656 165.949-370.656 370.656 0 204.709 165.948 370.657 370.656 370.657 72.094 0 139.366-20.605 196.29-56.214l180.04 180.041c32.582 32.582 85.546 32.582 118.132 0 32.582-32.66 32.582-85.552 0-118.205zM437.879 658.911c-122.827 0-222.394-99.569-222.394-222.395 0-122.825 99.568-222.394 222.394-222.392 122.826 0 222.394 99.568 222.394 222.394-0.001 122.824-99.57 222.393-222.394 222.393z" p-id="8500" fill="#cdcdcd"></path></svg>