<svg t="1631186354919" class="icon" viewBox="0 0 1024 1024" version="1.1" xmlns="http://www.w3.org/2000/svg" p-id="14811" width="200" height="200"><path d="M37.081071 0A37.081071 37.081071 0 0 0 0 37.081071v949.837858a37.081071 37.081071 0 0 0 37.081071 37.081071h949.837858a37.081071 37.081071 0 0 0 37.081071-37.081071V37.081071A37.081071 37.081071 0 0 0 986.918929 0z m817.261583 354.25176l-402.751447 410.311538a33.06559 33.06559 0 0 1-47.387909 0L190.964248 547.334926a34.582841 34.582841 0 0 1 0-48.264252 33.06559 33.06559 0 0 1 47.374829 0l189.551636 193.083166L807.020143 305.987508a33.06559 33.06559 0 0 1 47.374829 0 34.582841 34.582841 0 0 1 0 48.264252z" fill="#565EE2" p-id="14812"></path></svg>