<svg t="1630895609526" class="icon" viewBox="0 0 1024 1024" version="1.1" xmlns="http://www.w3.org/2000/svg" p-id="2957" width="200" height="200"><path d="M218.5 740.2h128.3c8.9 0 16.1-7.2 16.1-16.1V319.5c0-8.9-7.2-16.1-16.1-16.1H218.5c-8.9 0-16.1 7.2-16.1 16.1v404.6c0 8.9 7.2 16.1 16.1 16.1zM449.8 740.2h128.3c8.9 0 16.1-7.2 16.1-16.1V155.7c0-8.9-7.2-16.1-16.1-16.1H449.8c-8.9 0-16.1 7.2-16.1 16.1v568.4c-0.1 8.9 7.2 16.1 16.1 16.1zM681 740.2h128.3c8.9 0 16.1-7.2 16.1-16.1V483.3c0-8.9-7.2-16.1-16.1-16.1H681c-8.9 0-16.1 7.2-16.1 16.1v240.8c0 8.9 7.2 16.1 16.1 16.1zM846.9 810.8h-674c-8.9 0-16.1 7.2-16.1 16.1v38.4c0 8.9 7.2 16.1 16.1 16.1h673.9c8.9 0 16.1-7.2 16.1-16.1V827c0.1-8.9-7.1-16.2-16-16.2z" fill="#0C9BFF" p-id="2958"></path></svg>